<svg class="facebook"
 xmlns="http://www.w3.org/2000/svg"
 xmlns:xlink="http://www.w3.org/1999/xlink"
 width="40px" height="40px" viewbox="0 0 40 40">
<path fill-rule="evenodd"  fill="rgb(209, 213, 216)"
 d="M19.839,39.998 C8.882,39.998 -0.001,31.044 -0.001,19.999 C-0.001,8.953 8.882,-0.002 19.839,-0.002 C30.796,-0.002 40.000,8.953 40.000,19.999 C40.000,31.045 30.796,39.998 19.839,39.998 ZM19.995,1.004 C9.371,1.004 0.990,9.374 0.990,19.999 C0.990,30.623 9.371,38.993 19.995,38.993 C30.619,38.993 39.000,30.623 39.000,19.999 C39.000,9.374 30.619,1.004 19.995,1.004 ZM23.467,17.411 L22.828,19.574 L19.834,19.574 L19.834,29.076 L17.117,29.076 L17.115,19.574 L14.411,19.574 L14.403,17.411 L17.116,17.411 C17.116,17.411 17.116,15.510 17.116,14.652 C17.116,10.636 21.111,10.921 21.111,10.921 L23.025,10.921 L23.013,13.517 L21.115,13.517 C19.820,13.517 19.850,14.570 19.850,14.570 L19.850,17.411 L23.467,17.411 Z"/>
</svg>