<svg  class="twitter" 
 xmlns="http://www.w3.org/2000/svg"
 xmlns:xlink="http://www.w3.org/1999/xlink"
 width="40px" height="40px" viewbox="0 0 40 40">
<path fill-rule="evenodd"  fill="rgb(209, 213, 216)"
 d="M20.009,39.998 C8.965,39.998 0.013,31.044 0.013,19.999 C0.013,8.953 8.965,-0.002 20.009,-0.002 C31.052,-0.002 40.004,8.953 40.004,19.999 C40.004,31.044 31.052,39.998 20.009,39.998 ZM20.009,0.999 C9.518,0.999 1.014,9.505 1.014,19.999 C1.014,30.492 9.518,38.999 20.009,38.999 C30.501,38.999 39.005,30.492 39.005,19.999 C39.005,9.505 30.501,0.999 20.009,0.999 ZM26.574,17.012 C26.580,17.160 26.583,17.309 26.583,17.457 C26.583,21.991 23.113,27.218 16.766,27.218 C14.817,27.218 13.004,26.650 11.477,25.676 C11.747,25.709 12.021,25.726 12.300,25.726 C13.916,25.726 15.404,25.176 16.585,24.256 C15.075,24.229 13.801,23.237 13.362,21.873 C13.572,21.914 13.789,21.934 14.011,21.934 C14.326,21.934 14.631,21.894 14.920,21.815 C13.342,21.500 12.152,20.114 12.152,18.451 C12.152,18.436 12.152,18.421 12.153,18.407 C12.618,18.665 13.150,18.819 13.715,18.836 C12.790,18.221 12.180,17.172 12.180,15.981 C12.180,15.352 12.351,14.763 12.648,14.257 C14.349,16.332 16.892,17.697 19.760,17.841 C19.700,17.591 19.670,17.327 19.670,17.060 C19.670,15.164 21.215,13.627 23.121,13.627 C24.113,13.627 25.010,14.045 25.640,14.712 C26.425,14.557 27.164,14.272 27.830,13.879 C27.573,14.679 27.025,15.353 26.313,15.778 C27.011,15.694 27.676,15.510 28.295,15.236 C27.832,15.924 27.248,16.529 26.574,17.012 Z"/>
</svg>